# xmcd
#
# Track frame offsets:
#	150
#	25387
#	54089
#	73058
#	92775
#	119545
#	141994
#	158401
#	183466
#	205338
#	226377
#	242887
#	261864
#	278573
#
# Disc length: 4050 seconds
#
# Revision: 1
# Processed by: cddbd v1.5.1PL0 Copyright (c) Steve Scherf et al.
# Submitted via: CDex 1.50Beta5
#
DISCID=c70fd00e
DTITLE=B'z - The Ballads  -Love and B'z-
DYEAR=1900
DGENRE=Rock
TTITLE0=いつかのメリークリスマス
TTITLE1=ALONE
TTITLE2=今夜月の見える丘に
TTITLE3=HOME
TTITLE4=Calling
TTITLE5=TIME
TTITLE6=消えない虹
TTITLE7=月光
TTITLE8=ハピネス
TTITLE9=もう一度キスしたかった
TTITLE10=泣いて泣いて泣きやんだら
TTITLE11=ONE
TTITLE12=Everlasting
TTITLE13=GOLD
EXTD=
EXTT0=
EXTT1=
EXTT2=
EXTT3=
EXTT4=
EXTT5=
EXTT6=
EXTT7=
EXTT8=
EXTT9=
EXTT10=
EXTT11=
EXTT12=
EXTT13=
PLAYORDER=
